<mxfile host="app.diagrams.net" modified="2023-06-16T12:01:17.514Z" agent="Mozilla/5.0 (Windows NT 10.0; Win64; x64) AppleWebKit/537.36 (KHTML, like Gecko) Chrome/114.0.0.0 Safari/537.36 Edg/114.0.1823.43" etag="FYUx9SAr6MITnzCAV91s" version="21.3.8" type="github">
  <diagram name="Page-1" id="LZJyDBGYhkVnm9KzOlmo">
    <mxGraphModel dx="2204" dy="773" grid="1" gridSize="10" guides="1" tooltips="1" connect="1" arrows="1" fold="1" page="1" pageScale="1" pageWidth="850" pageHeight="1100" math="0" shadow="0">
      <root>
        <mxCell id="0" />
        <mxCell id="1" parent="0" />
        <mxCell id="cLtNdNn3tPnhrVzdo7Qm-1" value="多维随机向量" style="rounded=0;whiteSpace=wrap;html=1;fillColor=#ffe6cc;strokeColor=#d79b00;verticalAlign=top;align=left;" vertex="1" parent="1">
          <mxGeometry x="-160" y="250" width="780" height="670" as="geometry" />
        </mxCell>
        <mxCell id="cLtNdNn3tPnhrVzdo7Qm-2" value="联合分布函数" style="rounded=0;whiteSpace=wrap;html=1;" vertex="1" parent="1">
          <mxGeometry x="280" y="480" width="120" height="60" as="geometry" />
        </mxCell>
        <mxCell id="cLtNdNn3tPnhrVzdo7Qm-4" style="edgeStyle=orthogonalEdgeStyle;rounded=0;orthogonalLoop=1;jettySize=auto;html=1;" edge="1" parent="1" source="cLtNdNn3tPnhrVzdo7Qm-3" target="cLtNdNn3tPnhrVzdo7Qm-2">
          <mxGeometry relative="1" as="geometry" />
        </mxCell>
        <mxCell id="cLtNdNn3tPnhrVzdo7Qm-3" value="边缘分布函数" style="rounded=0;whiteSpace=wrap;html=1;" vertex="1" parent="1">
          <mxGeometry x="280" y="610" width="120" height="60" as="geometry" />
        </mxCell>
        <mxCell id="cLtNdNn3tPnhrVzdo7Qm-11" style="edgeStyle=orthogonalEdgeStyle;rounded=0;orthogonalLoop=1;jettySize=auto;html=1;" edge="1" parent="1" source="cLtNdNn3tPnhrVzdo7Qm-5" target="cLtNdNn3tPnhrVzdo7Qm-3">
          <mxGeometry relative="1" as="geometry" />
        </mxCell>
        <mxCell id="cLtNdNn3tPnhrVzdo7Qm-5" value="边缘密度函数" style="rounded=0;whiteSpace=wrap;html=1;" vertex="1" parent="1">
          <mxGeometry x="280" y="730" width="120" height="60" as="geometry" />
        </mxCell>
        <mxCell id="cLtNdNn3tPnhrVzdo7Qm-9" style="edgeStyle=orthogonalEdgeStyle;rounded=0;orthogonalLoop=1;jettySize=auto;html=1;" edge="1" parent="1" source="cLtNdNn3tPnhrVzdo7Qm-6" target="cLtNdNn3tPnhrVzdo7Qm-8">
          <mxGeometry relative="1" as="geometry" />
        </mxCell>
        <mxCell id="cLtNdNn3tPnhrVzdo7Qm-6" value="边缘分布律" style="rounded=0;whiteSpace=wrap;html=1;" vertex="1" parent="1">
          <mxGeometry x="90" y="610" width="120" height="60" as="geometry" />
        </mxCell>
        <mxCell id="cLtNdNn3tPnhrVzdo7Qm-10" style="edgeStyle=orthogonalEdgeStyle;rounded=0;orthogonalLoop=1;jettySize=auto;html=1;entryX=0;entryY=0.5;entryDx=0;entryDy=0;" edge="1" parent="1" source="cLtNdNn3tPnhrVzdo7Qm-8" target="cLtNdNn3tPnhrVzdo7Qm-2">
          <mxGeometry relative="1" as="geometry" />
        </mxCell>
        <mxCell id="cLtNdNn3tPnhrVzdo7Qm-8" value="联合分布律" style="rounded=0;whiteSpace=wrap;html=1;" vertex="1" parent="1">
          <mxGeometry x="90" y="480" width="120" height="60" as="geometry" />
        </mxCell>
        <mxCell id="cLtNdNn3tPnhrVzdo7Qm-15" style="edgeStyle=orthogonalEdgeStyle;rounded=0;orthogonalLoop=1;jettySize=auto;html=1;entryX=1;entryY=0.5;entryDx=0;entryDy=0;" edge="1" parent="1" source="cLtNdNn3tPnhrVzdo7Qm-12" target="cLtNdNn3tPnhrVzdo7Qm-5">
          <mxGeometry relative="1" as="geometry" />
        </mxCell>
        <mxCell id="cLtNdNn3tPnhrVzdo7Qm-12" value="条件分布函数" style="rounded=0;whiteSpace=wrap;html=1;" vertex="1" parent="1">
          <mxGeometry x="470" y="730" width="120" height="60" as="geometry" />
        </mxCell>
        <mxCell id="cLtNdNn3tPnhrVzdo7Qm-14" style="edgeStyle=orthogonalEdgeStyle;rounded=0;orthogonalLoop=1;jettySize=auto;html=1;" edge="1" parent="1" source="cLtNdNn3tPnhrVzdo7Qm-13" target="cLtNdNn3tPnhrVzdo7Qm-6">
          <mxGeometry relative="1" as="geometry" />
        </mxCell>
        <mxCell id="cLtNdNn3tPnhrVzdo7Qm-13" value="条件分布律" style="rounded=0;whiteSpace=wrap;html=1;" vertex="1" parent="1">
          <mxGeometry x="-90" y="610" width="120" height="60" as="geometry" />
        </mxCell>
        <mxCell id="cLtNdNn3tPnhrVzdo7Qm-17" style="edgeStyle=orthogonalEdgeStyle;rounded=0;orthogonalLoop=1;jettySize=auto;html=1;" edge="1" parent="1" source="cLtNdNn3tPnhrVzdo7Qm-16" target="cLtNdNn3tPnhrVzdo7Qm-5">
          <mxGeometry relative="1" as="geometry" />
        </mxCell>
        <mxCell id="cLtNdNn3tPnhrVzdo7Qm-18" style="edgeStyle=orthogonalEdgeStyle;rounded=0;orthogonalLoop=1;jettySize=auto;html=1;" edge="1" parent="1" source="cLtNdNn3tPnhrVzdo7Qm-16" target="cLtNdNn3tPnhrVzdo7Qm-6">
          <mxGeometry relative="1" as="geometry" />
        </mxCell>
        <mxCell id="cLtNdNn3tPnhrVzdo7Qm-16" value="随机向量的独立性" style="rounded=1;whiteSpace=wrap;html=1;" vertex="1" parent="1">
          <mxGeometry x="90" y="730" width="120" height="60" as="geometry" />
        </mxCell>
      </root>
    </mxGraphModel>
  </diagram>
</mxfile>
